<?xml version="1.0" standalone="yes"?>
<svg xmlns="http://www.w3.org/2000/svg" viewBox="0 0 520.17 180">
<path style="fill:#d51e46; stroke:none;" d="M79 0.428238L76 0.919754C73.3189 1.36409 70.6392 1.81856 68 2.47531C66.6568 2.80956 65.3273 3.19853 64 3.59027L61 4.5162C59.3111 5.08406 57.655 5.74176 56 6.40047C53.979 7.20488 51.9496 8.00139 50 8.96991C48.2973 9.81581 46.6513 10.7798 45 11.7207L42 13.4606L40 14.7492C37.5799 16.3786 35.2798 18.186 33 20.0039C31.3053 21.3552 29.607 22.7103 28.0039 24.1705C26.3367 25.6891 24.773 27.3031 23.2894 29.0008C22.4362 29.977 21.6131 30.984 20.8079 32L18.4784 35C17.5048 36.3071 16.5818 37.6486 15.6713 39C14.5645 40.6428 13.466 42.2972 12.4529 44C11.4841 45.6285 10.6068 47.306 9.75926 49L8.30864 52C7.7043 53.3182 7.15265 54.658 6.60417 56C6.06475 57.3198 5.54128 58.651 5.0787 60C4.29232 62.2933 3.70421 64.6466 3.12963 67C2.72416 68.6607 2.35032 70.326 2.00386 72C1.7296 73.3251 1.46938 74.6585 1.28858 76C1.06473 77.6609 1.01237 79.3349 0.834105 81L0.169753 86C0.0606359 86.9951 0.0351071 88 0.0154321 89C-0.0173493 90.6661 0.0119266 92.3404 0.169753 94L0.834105 99C1.01237 100.665 1.06473 102.339 1.28858 104C1.46938 105.342 1.7296 106.675 2.00386 108C2.35032 109.674 2.72417 111.339 3.12963 113C3.6206 115.011 4.11341 117.028 4.74614 119C5.39913 121.035 6.19333 123.026 7.01157 125L8.30864 128L9.75926 131C10.4277 132.352 11.1242 133.691 11.8727 135C12.8495 136.709 13.9172 138.36 15.0039 140C16.3566 142.042 17.7477 144.054 19.2361 146C20.0108 147.013 20.8017 148.018 21.6157 149L23.2894 150.999C24.1844 152.009 25.085 153.006 26.0394 153.961C28.2152 156.137 30.5969 158.08 33 159.996C35.5917 162.063 38.2117 164.113 41 165.91C42.6249 166.958 44.3165 167.897 46 168.846C47.6466 169.775 49.2873 170.708 51 171.511C52.6347 172.277 54.3232 172.932 56 173.6C57.655 174.258 59.3111 174.916 61 175.484L64 176.41L67 177.265C67.9946 177.53 68.9941 177.767 70 177.985C71.988 178.416 73.9937 178.749 76 179.08C77.9933 179.41 79.9818 179.772 82 179.91C83.3305 180.002 84.6671 179.996 86 179.999L91 180L95 179.999C96.3349 179.995 97.6667 179.983 99 179.91C100.006 179.856 101.003 179.714 102 179.572L105 179.08C107.681 178.636 110.361 178.181 113 177.525C114.343 177.19 115.673 176.801 117 176.41L120 175.484C121.689 174.916 123.345 174.258 125 173.6C127.021 172.795 129.05 171.999 131 171.03C132.703 170.184 134.349 169.22 136 168.279L139 166.539L141 165.251C143.42 163.621 145.72 161.814 148 159.996C150.041 158.368 152.087 156.733 153.961 154.91C156.168 152.764 158.121 150.373 160.076 148C160.893 147.009 161.727 146.028 162.497 145L163.961 143L165.996 140C166.874 138.686 167.739 137.359 168.547 136C169.516 134.372 170.393 132.694 171.241 131L172.691 128C173.296 126.682 173.847 125.342 174.396 124C174.935 122.68 175.459 121.349 175.921 120C176.708 117.707 177.296 115.353 177.87 113C178.276 111.339 178.65 109.674 178.996 108C179.27 106.675 179.531 105.342 179.711 104C179.935 102.339 179.988 100.665 180.166 99L180.83 94C180.939 93.0048 180.965 92 180.985 91C181.017 89.334 180.988 87.6596 180.83 86L180.166 81C179.988 79.3349 179.935 77.6609 179.711 76C179.531 74.6584 179.27 73.3252 178.996 72C178.65 70.326 178.276 68.6607 177.87 67C177.379 64.9891 176.887 62.972 176.254 61C175.601 58.9649 174.807 56.9735 173.988 55C172.421 51.2188 170.609 47.5365 168.547 44C167.751 42.6349 166.869 41.3165 165.996 40C165.102 38.6502 164.188 37.3154 163.244 36L161.714 34L160.076 32L158.41 30L156.714 28.0039C155.819 27.0071 154.921 26.0238 153.961 25.0895C152.087 23.2672 150.041 21.6318 148 20.0039C145.408 17.9372 142.788 15.8874 140 14.0895C138.375 13.0418 136.683 12.1025 135 11.1535C133.353 10.2253 131.713 9.29225 130 8.4892C128.365 7.7227 126.677 7.06786 125 6.40047C123.345 5.74176 121.689 5.08406 120 4.5162L117 3.59027L114 2.73457C113.005 2.46967 112.006 2.23276 111 2.01466C109.012 1.58362 107.006 1.2513 105 0.919754C103.007 0.590347 101.018 0.228485 99 0.0895081C97.6695 -0.00212097 96.3328 0.00361633 95 0.000762939L90 0L86 0.000762939C84.665 0.00488281 83.3333 0.0172577 82 0.0895081C80.9936 0.144043 79.9966 0.285522 79 0.428238M87 16.2855L89 16.0934C90.0035 16.0543 90.9964 16.0366 92 16.0934C93.6816 16.1885 95.3328 16.5018 97 16.7184L101 17.1559C102.343 17.3179 103.672 17.5501 105 17.8048C107.351 18.2556 109.703 18.7592 112 19.439C114.042 20.0434 116.027 20.8073 118 21.6042C119.343 22.1465 120.69 22.692 122 23.3094C124.045 24.2727 126.057 25.295 128 26.4529C131.161 28.3371 134.131 30.5088 137 32.8079C138.358 33.8963 139.707 35 140.996 36.1705C142.001 37.0834 142.974 38.0302 143.91 39.0147C145.699 40.898 147.302 42.931 148.869 45C150.343 46.9472 151.805 48.9104 153.073 51C154.248 52.9353 155.235 54.9772 156.247 57C157.559 59.6222 158.917 62.2353 159.91 65C160.498 66.6375 160.932 68.3183 161.37 70L162.116 73C162.51 74.6596 162.864 76.3268 163.195 78C163.457 79.3241 163.695 80.6561 163.829 82C163.962 83.3298 163.984 84.6648 163.996 86L164 90L163.999 93L163.961 96C163.92 97.0053 163.84 98.0021 163.711 99C163.58 100.006 163.392 101.006 163.195 102C162.798 104.011 162.357 106.009 161.87 108C161.212 110.698 160.549 113.408 159.536 116C158.597 118.402 157.399 120.697 156.247 123C155.235 125.023 154.248 127.065 153.073 129C151.805 131.09 150.343 133.053 148.869 135C147.575 136.709 146.264 138.405 144.826 139.996C143.614 141.337 142.334 142.614 140.996 143.829C139.707 145 138.358 146.104 137 147.192C135.371 148.498 133.715 149.769 132 150.961C129.446 152.735 126.781 154.336 124 155.73C122.042 156.712 120.03 157.576 118 158.396C116.027 159.193 114.042 159.957 112 160.561C110.354 161.048 108.679 161.432 107 161.789C105.341 162.142 103.677 162.46 102 162.715L98 163.155L96 163.424C95.0018 163.57 94.0055 163.739 93 163.829L91 163.946L90 163.946L88 163.829L87 163.715L84 163.282L79 162.715C77.6579 162.538 76.3259 162.265 75 161.996C72.9851 161.588 70.9724 161.145 69 160.561C66.9584 159.957 64.973 159.193 63 158.396C60.272 157.294 57.5841 156.098 55 154.688C52.5771 153.365 50.2604 151.861 48 150.279C46.2932 149.084 44.6256 147.839 43 146.535C41.6082 145.42 40.2887 144.208 39.0147 142.961C37.7208 141.694 36.478 140.375 35.3002 139C34.193 137.707 33.1583 136.357 32.1312 135C30.8937 133.366 29.6617 131.72 28.544 130C27.9083 129.022 27.312 128.018 26.7423 127L25.1088 124C24.4269 122.685 23.7922 121.348 23.1782 120C22.4298 118.357 21.6951 116.702 21.0895 115C20.5062 113.361 20.0679 111.682 19.6296 110L18.6512 106C18.3468 104.672 18.0636 103.338 17.8048 102C17.6122 101.004 17.4201 100.006 17.2894 99C17.1597 98.0021 17.0798 97.0054 17.0394 96L17.0008 93L17 90L17.0039 86C17.0157 84.6648 17.0376 83.3298 17.1705 82C17.305 80.6552 17.5483 79.3259 17.8048 78C18.0636 76.6618 18.3468 75.3285 18.6512 74L19.6296 70C19.9728 68.6589 20.3176 67.3161 20.7492 66C21.3095 64.2917 22.0041 62.6425 22.7315 61C23.6325 58.9654 24.5919 56.9624 25.6412 55C26.5496 53.3012 27.4937 51.616 28.544 50C29.6617 48.2802 30.8937 46.6344 32.1312 45C33.1568 43.6454 34.1793 42.2784 35.3002 41L36.1736 40.0008C37.4089 38.6552 38.671 37.3403 40.0039 36.0903C42.4952 33.7538 45.2043 31.6785 48 29.7215C50.2604 28.1391 52.5771 26.6355 55 25.3125C56.3081 24.5982 57.6465 23.9331 59 23.3094C60.3171 22.7025 61.658 22.1526 63 21.6042C64.3198 21.0647 65.6509 20.5409 67 20.0787C69.2903 19.2941 71.6337 18.7138 74 18.2106C75.6587 17.8579 77.3234 17.5401 79 17.2855C80.3262 17.0841 81.6677 16.9953 83 16.8449L87 16.2855M80 24L80 151L78.3287 150.802L76.8395 150.481C74.8553 149.959 72.9031 149.315 71 148.547C68.6073 147.581 66.2993 146.411 64 145.244C62.3094 144.386 60.6155 143.529 59 142.533C56.8917 141.234 54.939 139.728 53.0008 138.192C51.6552 137.126 50.324 136.024 49.0895 134.829C47.235 133.035 45.6056 131.027 44.0147 129C41.5335 125.838 39.2404 122.531 37.3125 119C35.3928 115.484 33.8245 111.783 32.5162 108C32.1743 107.012 31.8871 106.003 31.5903 105C31.1978 103.674 30.7986 102.345 30.4753 101C29.9321 98.7408 29.4681 96.466 29.1705 94.1605L29.0417 92.6713L29 91C27.3813 91.3018 25.7696 91.62 24.1358 91.831L22.6698 91.9583L21 92L21.0154 93.6713C21.04 94.4623 21.0758 95.2587 21.1705 96.0448L21.439 98.0046L22.0039 101C22.4128 103.017 22.8835 105.015 23.4282 107C23.7976 108.346 24.2339 109.675 24.6705 111C25.2239 112.68 25.7887 114.36 26.4529 116C27.4219 118.392 28.5893 120.7 29.7562 123C30.2654 124.004 30.7617 125.018 31.3117 126C32.8653 128.775 34.5489 131.497 36.5177 134C38.1959 136.133 40.0871 138.079 42.0039 139.996C43.9281 141.921 45.8861 143.815 48 145.532C50.2078 147.327 52.5725 148.906 55 150.385C57.5852 151.96 60.2422 153.435 63 154.688C65.2753 155.721 67.6286 156.548 70 157.329C72.6235 158.194 75.2793 159.033 78 159.536L80 159.841L82.9753 160.154C84.664 160.365 86.3276 160.689 88 161L88 24L80 24M93 24L93 160L94.6713 159.958L96.1605 159.83C97.4464 159.67 98.7237 159.459 100.002 159.245C101.34 159.021 102.673 158.788 104 158.5C105.349 158.207 106.677 157.8 108 157.41C109.684 156.913 111.354 156.386 113 155.771C115.383 154.881 117.725 153.868 120 152.73C121.701 151.879 123.364 150.955 125 149.985C127.054 148.769 129.078 147.494 131 146.076C132.383 145.055 133.718 143.972 135 142.826C136.376 141.597 137.692 140.3 138.996 138.996C140.922 137.07 142.808 135.108 144.535 133C146.106 131.084 147.548 129.067 148.91 127C149.762 125.708 150.516 124.351 151.269 123C152.185 121.355 153.06 119.69 153.891 118L155.269 115L156.55 112L157.301 110C157.657 109.021 157.942 108.022 158.239 107.025L158.674 105.16L158.898 103.671L159 102L155.116 100.759L154.134 100.495L153.667 100.354L152 100L151.217 101.671L150.642 103.16C149.939 105.105 149.324 107.082 148.547 109C147.857 110.703 147.062 112.358 146.241 114C145.394 115.694 144.518 117.373 143.547 119C141.881 121.794 139.992 124.443 137.985 127C136.663 128.685 135.319 130.369 133.829 131.91C132.322 133.47 130.66 134.855 128.999 136.245C127.367 137.612 125.735 138.982 124 140.218C122.708 141.139 121.359 141.977 120 142.792C119.012 143.385 118.017 143.97 117 144.511C115.372 145.376 113.688 146.11 112 146.846C110.349 147.567 108.7 148.297 107.005 148.91L105.045 149.564L104.16 149.831L103.159 150.175L102.671 150.313L101 151L101 94L155 94L155 86L101 86L101 24L93 24z"/>
<path style="fill:#4a413d; stroke:none;" d="M220 71L220 90L219.996 96C219.976 97.6691 219.963 99.3476 219.695 101L219.276 102.991L218.968 103.961L218.567 104.883L218.066 105.704L216.755 106.793L215.26 106.795L214.023 105.728L213.318 104.122L213.147 103.15L213 101L204 101L204.015 104.16L204.105 106.025L204.394 107.998L205.009 109.957L205.457 110.895L206.653 112.606L208.214 113.991L209.105 114.543L210.043 114.991L212.004 115.606L213.001 115.786L215 115.953C216.336 116.014 217.671 115.941 219 115.812L219.999 115.66L220.996 115.442L222.957 114.772L223.895 114.312L225.606 113.146L226.347 112.442L227.543 110.812C228.219 109.641 228.585 108.325 228.786 106.996C228.936 106.004 228.955 105 228.985 104L228.999 102L229 98L229 71L220 71M345 71L345 79L354 79L354 115L364 115L364 79L373 79L373 71L345 71M437 71L437 82L434.841 81.0833L433.84 80.7392L431.975 80.3596L429.999 80.2816L429.004 80.3843L428.015 80.5872L426.105 81.3187L424.394 82.5139L423.008 84.1335L421.995 86.0185L421.613 87.0046L421.044 89C420.628 90.64 420.366 92.3214 420.171 94C420.016 95.3225 420.008 96.6703 420.008 98C420.008 99.3344 420.038 100.671 420.171 102C420.271 103.007 420.431 104.006 420.619 105C420.809 106.004 421.017 107.015 421.305 107.996C421.596 108.989 421.934 109.99 422.453 110.891L423.653 112.566L424.394 113.258L425.214 113.821L426.105 114.258L427.043 114.566L428.015 114.771L429.004 114.887L430.995 114.941L432.941 114.775L433.851 114.59L435.39 113.975L436.346 113.2L437 112L438.239 113.017L439.45 113.55L441.11 113.876C442.023 113.957 442.929 113.973 443.843 113.995L447 114L447 71L437 71M451 71L451 79L460 79L460 71L451 71M264 82L264 115L273 115L273 103L273.001 99L273.015 97L273.109 95.0039L273.228 94.0162L273.43 93.0478L274.138 91.2677L275.24 89.9113L276.529 89.162L277.29 89.0177L279 89L279 115L289 115L289 104L289.001 98L289.059 95.0039L289.314 93.0478L289.987 91.2677L291.124 89.9113L292.479 89.162L293.265 89.0177L295 89L295 115L305 115L305 101L304.996 94L304.907 91L304.671 89.0008C304.518 87.9828 304.202 87.0074 303.852 86.044L303.427 85.1088L302.297 83.4336L300.775 82.179L298.956 81.4344L296.996 81.1242L295 81.1227L293 81.3966L292 81.6289L290 82.1505L289 82.3356L287 82.3356L286 82.1505L283 81.3966C282.015 81.1849 281.007 81.0942 280.001 81.0864C278.68 81.0763 277.385 81.271 276.09 81.5046C275.201 81.6649 274.324 81.883 273.424 81.9815C271.948 82.1432 270.465 82.047 268.985 82.0239L264 82M319 84L317.761 82.983L316.55 82.4498L314.89 82.1242C313.978 82.0435 313.071 82.0267 312.157 82.0046L309 82L309 126L318 126L318 113L319.671 114.329L320.159 114.569L322.045 115.441L323.025 115.703L325.002 115.899L325.999 115.872L327.985 115.566L328.956 115.258L329.892 114.821L331.581 113.566L332.91 111.891L333.427 110.956L333.852 109.985L334.467 107.999L334.815 106L334.96 104L334.999 101L335 97C334.997 94.9966 335.014 92.9959 334.815 91L334.467 89.0008L334.196 88.0039L333.427 86.044L332.297 84.2284L331.581 83.4336L330.775 82.7423L328.956 81.7423L326.996 81.233L325.005 81.1011L323.059 81.2971L321.321 81.8688L320.086 82.6713L319 84M381 84L379.761 82.983L378.55 82.4498L376.89 82.1242C375.978 82.0435 375.071 82.0267 374.157 82.0046L371 82L371 115L381 115L381 105L381.004 100C381.018 98.998 381.039 98.0039 381.109 97.0039L381.434 95.044L382.179 93.2284L382.741 92.4336L384.204 91.179L385.883 90.4344L387.333 90.1181L389 90L389 81L387.329 81.0463L385.858 81.2238L384.113 81.6968L383.316 82.0247L382.086 82.8002L381 84M391 93L400 93L400.343 91.3951L400.59 91.0077L401.025 90.216L402.255 89.321L403.682 89.3403L404.268 89.7361L404.659 90.3326L404.794 91.0586L404.248 92.5903L402.833 93.8619L401.937 94.3511L399.995 95.1011C398.999 95.435 397.972 95.7164 397.005 96.1327L395.055 97.0887L394.133 97.7029L392.514 99.2245L391.318 101.044L390.894 102.015L390.576 103.004L390.229 105L390.225 107L390.344 107.999L390.537 108.996L391.148 110.956L391.573 111.891L392.09 112.772L393.419 114.258L395.108 115.258L396.044 115.566L398.004 115.876L399.995 115.877L400.981 115.772L401.941 115.59L403.679 114.975L404.914 114.2L406 113L407.239 114.017L408.45 114.55L410.11 114.876C411.022 114.957 411.929 114.973 412.843 114.995L416 115L415.902 113.329L415.833 112.841L415.714 111.84L415.285 108.995L415.09 107C414.975 105.337 415.003 103.666 415 102L415 96L414.996 92L414.956 90.0008L414.772 88.0154L414.566 87.0432L413.821 85.2137L412.566 83.6528L411.772 83.0093L409.956 82.0093L407.996 81.3943L406 81.1049C404.665 81.0197 403.337 81.0024 402 81.044L400.001 81.2137L399.004 81.3943L398.015 81.6528L397.044 82.0093L396.108 82.4568L394.419 83.6528L393.09 85.2137L392.573 86.1034L391.804 87.9907L391.33 89.8403L391.102 91.3287L391 93M465 82L465 115L474 115L474 102L474.004 98L474.044 96.0008L474.109 95.0039L474.228 94.0162L474.434 93.0486L474.742 92.1281L475.178 91.287L475.738 90.5818L476.414 90.0602L477.961 89.7701L479.412 90.5463L479.976 91.2569L480.397 92.1026L480.682 93.0347L480.852 94.0085L480.941 95.0015L480.981 96L481 99L481 103L481 115L490 115L490 100L490 95L489.996 92C489.982 90.9969 489.961 90.0018 489.891 89.0008L489.566 87.0154L488.821 85.1088L487.566 83.4336L485.891 82.179L483.985 81.4375L482.996 81.2438L481.999 81.1512L480 81.2099L479 81.3395C477.668 81.555 476.345 81.8536 475 81.9815C473.344 82.139 471.684 82.0487 470.025 82.0239L465 82M511 113L510.755 114.667L510.577 115.139L509.823 116.877L509.262 117.65L507.83 118.681L506.277 118.813L505.502 118.421L504 117L495 117L495.062 118.671L495.318 120.145L496.028 121.916L497.318 123.568L499.059 124.821L500.019 125.258L502.001 125.772L503 125.891L505 125.985C506.332 126.024 507.669 126 509 125.956L510 125.891L511.999 125.566L513.982 124.821L515.867 123.566L516.721 122.772L518.142 120.956L519.107 118.996L519.427 117.999L519.811 116L519.906 115L519.985 113L519.999 111L520 108L520 82L514.99 82.0239C513.469 82.0472 511.942 82.1476 510.424 81.9815C508.921 81.8169 507.469 81.3409 505.961 81.2099L503.996 81.1512L503 81.2438L501.015 81.7431L500.044 82.179L499.109 82.7423L497.43 84.2284C495.739 86.1013 494.94 88.568 494.468 91C494.084 92.9818 494.025 94.9878 494.004 97L494.015 100C494.046 100.998 494.047 102.007 494.174 103L494.468 105L494.684 106L495.264 107.996L496.14 109.956L497.43 111.772L498.228 112.566L500.044 113.82L502.004 114.551L503.001 114.728L504.995 114.746L506.955 114.393L508.841 113.797L511 113M234 82L234 101L234.015 107L234.109 108.996L234.434 110.956L235.179 112.772L235.742 113.566L237.228 114.821L239.044 115.566L241.004 115.876L242.995 115.877L244.941 115.59L246.679 114.975L247.914 114.2L249 113L250.239 114.017L251.45 114.55L253.11 114.876C254.022 114.957 254.929 114.973 255.843 114.995L259 115L259 82L250 82L250 95L249.996 99L249.956 100.999L249.891 101.996L249.772 102.984L249.566 103.951L249.258 104.872L248.822 105.713L248.262 106.418L247.586 106.94L246.039 107.23L244.588 106.454L244.024 105.743L243.603 104.897L243.318 103.965L243.148 102.992L243.059 101.998L243.019 101L243 98L243 94L243 82L234 82M451 82L451 115L460 115L460 82L451 82M323 88L324.2 89.6713L324.975 91.1605L325.59 93.0247L325.893 95.0015L325.985 97L325.996 100C325.984 100.998 325.961 101.989 325.891 102.985L325.772 103.955C325.611 104.846 325.372 105.781 324.822 106.522L323.586 107.593L322.83 107.824L322.039 107.824L321.273 107.593L320.584 107.149L319.563 105.756L319.228 104.887C318.961 103.933 318.76 102.974 318.599 101.996C318.38 100.672 318.218 99.3451 318.259 98C318.29 96.9938 318.436 95.9955 318.599 95.0039L318.977 93.044L319.224 92.108L319.539 91.2276L320.44 89.74L321.155 89.1119L323 88M433.039 88.9213L433.83 88.9213L434.586 89.1759L435.262 89.662L435.822 90.3372L436.566 92.0594L436.891 94.0046C436.984 95.3361 436.998 96.6657 436.998 98C436.998 99.3343 436.984 100.664 436.891 101.995L436.566 103.941L436.258 104.847L435.822 105.663L435.262 106.338L433.83 107.079L433.039 107.079L432.274 106.824L431.588 106.338L431.024 105.663L430.318 103.941L430.059 101.995C429.997 100.664 430 99.3325 430 98C430 96.6675 429.997 95.336 430.059 94.0046L430.318 92.0594L431.024 90.3372L431.588 89.662L432.274 89.1759L433.039 88.9213M508 88L509.2 89.6713L509.975 91.1605L510.59 93.0247L510.776 94.0046C510.941 94.994 510.952 96.0007 510.984 97L510.984 99L510.891 100.995L510.772 101.981L510.566 102.941L509.822 104.677L508.586 105.914L507.829 106.248L507.035 106.364L505.549 105.914L504.934 105.377L504.032 103.851L503.724 102.941L503.309 100.995C503.005 99.0019 503.104 96.9854 503.444 95.0039L503.861 93.044L504.143 92.108L504.489 91.2276L505.429 89.74L506.152 89.1119L508 88M406 100C405.987 101.06 405.999 102.099 405.941 103.156L405.852 104.025L405.398 105.856L404.421 107.397L403.012 108.396L402.1 108.685L400 109L399.586 106.856L399.518 105.883L399.833 104.189L400.752 102.651L401.413 102.01L402.948 101.015L404.345 100.43L406 100z"/>
</svg>
