<!DOCTYPE svg PUBLIC "-//W3C//DTD SVG 20010904//EN" "http://www.w3.org/TR/2001/REC-SVG-20010904/DTD/svg10.dtd">
<svg version="1.0" xmlns="http://www.w3.org/2000/svg" width="920px" height="310px" viewBox="400 950 9200 3100" preserveAspectRatio="xMidYMid meet">
<g id="layer101" fill="#3b3b3b" stroke="none">
 <path d="M9204 3125 c-74 -34 -122 -96 -130 -168 l-7 -57 51 0 c51 0 51 0 62 38 19 68 65 103 134 104 95 2 144 -47 153 -153 l6 -61 -49 27 c-39 22 -62 28 -114 28 -142 1 -241 -103 -256 -267 -7 -87 60 -213 136 -252 64 -34 169 -34 234 1 44 23 46 24 46 5 0 -17 7 -20 50 -20 l50 0 0 321 c0 285 -2 324 -17 350 -10 16 -20 29 -24 29 -4 0 -9 8 -11 18 -3 10 -32 32 -65 50 -79 42 -170 44 -249 7z m173 -356 c49 -27 67 -47 81 -88 43 -122 -26 -245 -137 -245 -52 0 -85 19 -120 70 -17 24 -21 45 -21 107 0 71 2 79 31 112 58 65 105 78 166 44z"/>
 <path d="M7224 2881 c-62 -15 -127 -69 -158 -131 -26 -52 -30 -70 -30 -142 1 -65 6 -93 23 -128 23 -48 58 -92 81 -104 8 -4 26 -13 40 -21 16 -9 53 -15 103 -15 66 0 83 4 117 25 38 24 40 24 40 5 0 -18 7 -20 60 -20 l60 0 -2 258 -3 257 -53 3 c-47 3 -54 1 -59 -17 -5 -20 -6 -20 -32 -2 -49 35 -121 47 -187 32z m101 -100 c3 -5 18 -12 34 -16 77 -17 114 -169 62 -258 -23 -40 -78 -70 -128 -69 -84 1 -160 94 -150 184 8 61 48 123 95 147 41 21 78 26 87 12z"/>
 <path d="M7836 2879 c-74 -18 -147 -89 -174 -168 -23 -67 -10 -220 21 -257 81 -95 117 -114 213 -114 77 0 117 13 145 46 12 15 15 -10 19 -202 l5 -219 50 0 50 0 0 450 0 450 -48 3 c-41 3 -49 0 -54 -17 -5 -19 -6 -19 -47 4 -50 28 -125 38 -180 24z m99 -99 c3 -5 15 -10 26 -10 46 0 99 -88 99 -164 0 -85 -56 -157 -130 -169 -49 -7 -116 28 -146 75 -51 81 -20 209 62 255 42 23 79 29 89 13z"/>
 <path d="M6427 2864 c-4 -4 -7 -96 -7 -204 l0 -197 -31 -7 c-29 -6 -30 -7 -27 -53 3 -44 5 -48 31 -51 l27 -3 0 -85 0 -84 50 0 50 0 1 53 c4 122 -1 112 47 115 l43 3 -3 52 -3 52 -42 3 -43 3 -2 202 -3 202 -40 3 c-23 2 -44 0 -48 -4z"/>
 <path d="M6720 2610 l0 -260 50 0 c30 0 50 4 50 11 0 7 10 5 25 -5 24 -16 99 -21 143 -10 27 8 28 25 5 67 -24 43 -33 48 -62 33 -30 -15 -45 -12 -75 18 -20 19 -21 33 -24 191 -3 224 -1 215 -62 215 l-50 0 0 -260z"/>
 <path d="M8297 2864 c-4 -4 -7 -121 -7 -261 l0 -253 55 0 55 0 -2 258 -3 257 -45 3 c-25 2 -49 0 -53 -4z"/>
 <path d="M8547 2863 c-4 -3 -7 -120 -7 -260 l0 -253 55 0 c42 0 55 3 55 15 0 20 10 19 40 -5 19 -15 41 -20 93 -20 94 0 149 32 163 94 3 17 10 36 15 42 5 7 8 97 7 200 l-3 189 -50 0 -50 0 -6 -190 c-3 -104 -7 -191 -7 -192 -19 -26 -52 -43 -85 -43 -52 0 -73 13 -97 62 -18 37 -20 62 -20 205 l0 163 -48 0 c-27 0 -52 -3 -55 -7z"/>
 <path d="M8300 2223 c-29 -26 -32 -34 -26 -65 10 -54 84 -79 119 -40 20 22 23 95 4 110 -31 26 -64 24 -97 -5z"/>
 </g>
<g id="layer102" fill="#c2344a" stroke="none">
 <path d="M1625 4029 c-22 -5 -47 -12 -55 -16 -8 -3 -19 -5 -23 -4 -4 1 -38 -10 -75 -24 -264 -102 -426 -202 -595 -368 -92 -91 -221 -254 -264 -334 -48 -92 -74 -146 -93 -198 -12 -33 -28 -71 -35 -85 -7 -14 -16 -47 -20 -75 -4 -27 -11 -54 -15 -60 -31 -41 -42 -528 -16 -655 50 -233 128 -416 257 -600 98 -139 350 -375 466 -435 21 -10 50 -27 64 -37 61 -41 313 -138 359 -138 14 0 30 -4 35 -9 38 -33 528 -45 655 -16 36 9 92 22 125 29 61 14 127 36 180 60 107 48 176 84 216 113 26 18 50 33 55 33 7 0 90 62 149 110 58 47 189 188 231 247 26 38 51 70 55 73 4 3 12 17 18 30 6 14 22 43 35 65 113 185 189 446 200 690 13 287 -35 526 -151 760 -25 50 -50 100 -56 113 -6 12 -14 22 -19 22 -4 0 -8 5 -8 11 0 17 -74 119 -149 206 -189 217 -443 377 -751 471 -83 25 -91 26 -410 28 -179 1 -343 -2 -365 -7z m545 -210 c81 -10 84 -10 150 -28 278 -74 583 -281 729 -495 8 -12 18 -23 21 -26 12 -9 90 -149 125 -222 86 -185 110 -308 110 -553 -1 -201 -13 -277 -68 -430 -28 -78 -117 -251 -159 -310 -78 -108 -222 -253 -333 -335 -139 -101 -395 -206 -565 -230 -74 -11 -309 -11 -390 0 -140 18 -373 95 -465 152 -135 86 -199 132 -267 196 -193 182 -326 407 -378 642 -7 30 -18 61 -24 69 -16 20 -15 480 1 512 7 13 24 68 38 123 14 54 30 106 34 115 5 9 29 59 55 111 55 113 129 215 240 328 115 118 211 188 346 252 36 18 73 36 82 40 27 15 131 50 146 50 8 0 29 7 46 15 63 30 367 44 526 24z"/>
 <path d="M1805 3723 c-56 -7 -205 -45 -211 -54 -3 -5 -14 -9 -25 -9 -23 0 -194 -82 -219 -105 -9 -8 -22 -15 -28 -15 -7 0 -12 -4 -12 -9 0 -4 -19 -21 -42 -37 -44 -30 -218 -200 -218 -214 0 -4 -9 -18 -20 -31 -12 -12 -31 -39 -42 -59 -12 -19 -24 -37 -27 -40 -16 -14 -113 -225 -135 -295 -15 -44 -31 -88 -36 -97 -5 -10 -13 -43 -16 -75 -4 -32 -10 -62 -14 -68 -11 -16 -20 -74 -12 -79 4 -2 35 -8 69 -11 l62 -7 15 36 c9 21 19 60 22 88 4 29 13 63 20 77 8 14 14 32 14 39 0 7 10 37 21 65 12 29 29 70 38 91 15 38 28 63 79 156 35 62 124 179 173 227 66 63 175 139 254 177 117 56 147 67 217 81 l68 13 0 -1109 c0 -609 3 -1109 8 -1111 4 -2 35 -2 70 0 l62 4 0 1189 0 1189 -52 -1 c-29 -1 -66 -4 -83 -6z"/>
 <path d="M2016 3690 c-3 -22 -6 -553 -6 -1179 1 -1290 -8 -1176 83 -1165 29 3 58 7 65 9 9 4 12 120 12 540 l0 535 485 0 485 0 0 75 0 75 -485 0 -485 0 0 490 0 490 28 -6 c105 -24 248 -88 357 -160 215 -142 400 -393 475 -643 23 -78 25 -80 97 -58 69 21 70 24 35 134 -79 248 -263 503 -477 661 -69 52 -293 172 -319 172 -8 0 -27 7 -42 15 -16 8 -40 15 -54 15 -15 0 -30 4 -35 9 -13 12 -117 31 -171 31 -41 0 -42 -1 -48 -40z"/>
 </g>
<g id="layer103" fill="#999999" stroke="none">
 <path d="M4137 3144 c-4 -4 -7 -184 -7 -401 l0 -393 50 0 50 0 -2 398 -3 397 -40 3 c-23 2 -44 0 -48 -4z"/>
 <path d="M5747 3144 c-4 -4 -7 -185 -7 -401 l0 -394 52 3 c46 3 53 6 58 28 4 17 8 21 14 12 4 -7 26 -22 48 -33 62 -32 170 -24 226 15 135 93 160 307 52 430 -68 77 -189 103 -277 58 -23 -12 -45 -27 -50 -34 -4 -7 -10 61 -13 152 l-5 165 -45 3 c-25 2 -49 0 -53 -4z m294 -368 c72 -30 109 -86 109 -166 0 -93 -50 -161 -128 -175 -70 -12 -153 42 -168 109 -4 17 -11 38 -17 48 -8 12 -8 24 0 40 5 13 19 43 30 68 14 31 32 52 59 67 47 26 71 28 115 9z"/>
 <path d="M4546 2883 c-43 -7 -101 -47 -127 -90 -23 -37 -24 -45 -24 -238 l0 -200 48 -3 47 -3 0 170 c0 95 5 182 11 198 23 63 93 90 145 57 44 -29 49 -50 54 -239 l5 -180 48 -3 49 -3 -4 205 -3 204 -30 43 c-16 23 -43 50 -60 59 -33 18 -113 30 -159 23z"/>
 <path d="M4930 2605 l0 -255 46 0 c37 0 47 4 51 20 5 19 6 19 35 -5 23 -19 41 -25 79 -25 54 0 80 10 117 43 19 18 26 19 40 9 65 -47 78 -52 142 -52 63 0 67 2 102 38 52 55 58 83 58 293 l0 189 -50 0 -50 0 -1 -172 c-1 -95 -4 -184 -8 -197 -3 -13 -19 -33 -33 -44 -37 -27 -84 -14 -115 32 -22 32 -23 44 -23 207 l0 174 -49 0 -48 0 -5 -173 c-5 -187 -13 -220 -59 -246 -22 -12 -31 -13 -58 -1 -56 23 -65 54 -69 248 l-4 172 -49 0 -49 0 0 -255z"/>
 <path d="M4130 2213 c-24 -30 -20 -69 7 -90 21 -16 85 -17 101 -1 17 17 15 84 -4 102 -26 26 -79 20 -104 -11z"/>
 </g>

</svg>
